<svg width="50" height="49" viewBox="0 0 50 49" fill="none" xmlns="http://www.w3.org/2000/svg">
<path d="M49.9875 32.2127L47.6046 16.2035C47.566 11.5548 44.7442 7.24427 39.8466 4.36479C35.7903 1.98012 30.5177 0.666748 25 0.666748C19.4822 0.666748 14.2095 1.98012 10.1532 4.36479C5.25575 7.24427 2.43378 11.5548 2.39531 16.2035L0.0124023 32.2127C0.00419921 32.2681 0 32.324 0 32.3801C0 37.0875 3.1371 41.4467 8.60701 44.3401C13.0851 46.7087 18.9069 48.0132 25 48.0132C31.093 48.0132 36.9149 46.7087 41.393 44.3401C46.8628 41.4467 50 37.0875 50 32.3801C49.9999 32.324 49.9958 32.2681 49.9875 32.2127ZM11.3056 6.32504C15.0179 4.14262 19.8813 2.94067 25 2.94067C30.1187 2.94067 34.9821 4.14262 38.6943 6.32504C42.913 8.80531 45.3327 12.4411 45.3327 16.3C45.3327 20.1589 42.9131 23.7946 38.6944 26.275C34.9821 28.4574 30.1187 29.6594 25 29.6594C19.8814 29.6594 15.0179 28.4574 11.3057 26.275C7.087 23.7947 4.66728 20.1589 4.66728 16.3C4.66728 12.4411 7.0869 8.8054 11.3056 6.32504ZM40.3297 42.33C36.1733 44.5286 30.7291 45.7393 25 45.7393C19.2709 45.7393 13.8266 44.5286 9.67029 42.33C5.00312 39.8612 2.3121 36.2682 2.27431 32.4613L3.83964 21.9452C5.14354 24.3844 7.29403 26.5538 10.1534 28.235C14.2097 30.6196 19.4823 31.933 25 31.933C30.5177 31.933 35.7905 30.6196 39.8467 28.235C42.7061 26.5538 44.8566 24.3843 46.1605 21.9452L47.7258 32.4613C47.6879 36.2683 44.9969 39.8613 40.3297 42.33Z" fill="#F1CDB3"/>
<path d="M25.0001 27.3849C32.7945 27.3849 39.6732 24.369 42.1164 19.8808C42.7417 18.7337 43.0589 17.5288 43.0589 16.3C43.0589 13.2231 41.0995 10.3767 37.5418 8.28522C34.1737 6.30534 29.7197 5.21501 25.0001 5.21501C20.2805 5.21501 15.8264 6.30544 12.4584 8.28532C8.90059 10.3768 6.94121 13.2231 6.94121 16.3001C6.94121 17.529 7.2583 18.7338 7.8834 19.8803C10.327 24.369 17.2056 27.3849 25.0001 27.3849ZM25.0001 25.1111C18.4622 25.1111 12.5235 22.7622 10.2131 19.334C12.5244 15.9077 18.464 13.5611 25.0001 13.5611C31.5362 13.5611 37.4759 15.9077 39.7872 19.3341C37.4771 22.7622 31.5382 25.1111 25.0001 25.1111ZM9.21494 16.3001C9.21504 14.0621 10.7761 11.9119 13.6106 10.2455C16.6348 8.46784 20.6795 7.48884 25 7.48884C29.3204 7.48884 33.3653 8.46784 36.3894 10.2456C39.2239 11.9119 40.7851 14.062 40.7851 16.3001C40.7851 16.4995 40.7716 16.6984 40.7467 16.8968C37.611 13.475 31.6382 11.2873 25 11.2873C18.3618 11.2873 12.3891 13.4751 9.25342 16.8968C9.22817 16.6989 9.21532 16.4996 9.21494 16.3001Z" fill="#F1CDB3"/>
<path d="M25 33.8085C24.8462 33.8085 24.6941 33.8397 24.5527 33.9002C24.4113 33.9607 24.2837 34.0492 24.1775 34.1604C23.4369 34.9363 21.0208 37.6139 21.0208 39.4931C21.0208 41.6872 22.8059 43.4723 25 43.4723C27.1941 43.4723 28.9792 41.6872 28.9792 39.4931C28.9792 37.6139 26.563 34.9363 25.8225 34.1604C25.7163 34.0492 25.5887 33.9607 25.4473 33.9002C25.3059 33.8397 25.1538 33.8085 25 33.8085ZM25 41.1985C24.0597 41.1985 23.2946 40.4335 23.2946 39.4932C23.2946 38.9884 24.0882 37.7687 25 36.6618C25.9119 37.7689 26.7054 38.9884 26.7054 39.4932C26.7054 40.4335 25.9403 41.1985 25 41.1985Z" fill="#F1CDB3"/>
<path d="M19.9036 18.9148H19.5531C18.9252 18.9148 18.4162 19.4238 18.4162 20.0517C18.4162 20.6797 18.9252 21.1887 19.5531 21.1887H19.9036C20.5315 21.1887 21.0405 20.6797 21.0405 20.0517C21.0405 19.4238 20.5315 18.9148 19.9036 18.9148Z" fill="#F1CDB3"/>
<path d="M33.395 18.9148H25.285C24.657 18.9148 24.148 19.4238 24.148 20.0517C24.148 20.6797 24.657 21.1887 25.285 21.1887H33.395C34.0229 21.1887 34.5319 20.6797 34.5319 20.0517C34.5319 19.4238 34.0229 18.9148 33.395 18.9148Z" fill="#F1CDB3"/>
</svg>
