<svg width="50" height="45" viewBox="0 0 50 45" fill="none" xmlns="http://www.w3.org/2000/svg">
<path d="M47.7475 5.54252C46.4482 4.49721 44.6161 3.56772 42.3014 2.78002C37.6654 1.2022 31.5208 0.333252 24.9998 0.333252C18.4787 0.333252 12.3343 1.20229 7.69823 2.78002C5.38358 3.56772 3.55136 4.49721 2.25214 5.54252C0.757811 6.74506 0 8.07181 0 9.48577V20.4156C0 21.8297 0.757811 23.1565 2.25224 24.3589C3.55146 25.4042 5.38358 26.3337 7.69832 27.1214C12.1021 28.6202 17.8674 29.4787 24.0234 29.561V33.4795H20.6557C20.2827 31.5082 18.5472 30.0129 16.4691 30.0129C14.1196 30.0129 12.2083 31.9243 12.2083 34.2736C12.2083 35.2951 12.5706 36.2623 13.2116 37.0207C12.5625 37.7887 12.207 38.7622 12.2083 39.7677C12.2083 42.1172 14.1196 44.0285 16.4691 44.0285C18.5472 44.0285 20.2827 42.5331 20.6557 40.5619H29.3443C29.7173 42.5332 31.4528 44.0285 33.5309 44.0285C35.8804 44.0285 37.7917 42.1171 37.7917 39.7677C37.7917 38.7463 37.4294 37.7791 36.7884 37.0207C37.4375 36.2526 37.793 35.2792 37.7917 34.2736C37.7917 31.9242 35.8804 30.0129 33.5309 30.0129C31.4528 30.0129 29.7173 31.5083 29.3443 33.4795H25.9766V29.561C32.1326 29.4787 37.8979 28.6202 42.3017 27.1214C44.6163 26.3337 46.4485 25.4042 47.7478 24.3589C49.2422 23.1565 50 21.8297 50 20.4156V9.48577C49.9997 8.07181 49.2419 6.74506 47.7475 5.54252ZM30.2518 35.4327C30.3846 35.4327 30.5159 35.4056 30.6379 35.3531C30.7599 35.3006 30.8698 35.2237 30.9611 35.1273C31.0523 35.0308 31.123 34.9168 31.1687 34.7921C31.2144 34.6675 31.2342 34.5348 31.2269 34.4022C31.2245 34.3594 31.2232 34.3166 31.2231 34.2737C31.2231 33.0013 32.2583 31.9661 33.5308 31.9661C34.8032 31.9661 35.8385 33.0014 35.8385 34.2737C35.8385 35.0535 35.4481 35.7752 34.7942 36.2044C34.6588 36.2932 34.5476 36.4144 34.4707 36.5569C34.3938 36.6994 34.3535 36.8588 34.3535 37.0208C34.3535 37.1827 34.3938 37.3421 34.4707 37.4847C34.5476 37.6272 34.6588 37.7483 34.7942 37.8372C35.4481 38.2664 35.8385 38.9881 35.8385 39.7678C35.8385 41.0403 34.8032 42.0755 33.5308 42.0755C32.2583 42.0755 31.2231 41.0402 31.2231 39.7678C31.2231 39.7247 31.2246 39.6819 31.2269 39.6393C31.2343 39.5067 31.2145 39.374 31.1688 39.2493C31.1232 39.1246 31.0525 39.0106 30.9612 38.9141C30.87 38.8177 30.76 38.7408 30.638 38.6884C30.516 38.6359 30.3846 38.6088 30.2518 38.6089H19.7479C19.6151 38.6089 19.4838 38.636 19.3618 38.6885C19.2398 38.741 19.1299 38.8178 19.0386 38.9143C18.9474 39.0107 18.8767 39.1248 18.831 39.2494C18.7853 39.3741 18.7655 39.5068 18.7728 39.6393C18.7751 39.6819 18.7766 39.7247 18.7766 39.7678C18.7766 41.0403 17.7414 42.0755 16.4689 42.0755C15.1965 42.0755 14.1612 41.0402 14.1612 39.7678C14.1612 38.9881 14.5516 38.2664 15.2055 37.8372C15.3409 37.7483 15.4521 37.6272 15.529 37.4847C15.606 37.3421 15.6462 37.1827 15.6462 37.0208C15.6462 36.8588 15.606 36.6994 15.529 36.5569C15.4521 36.4144 15.3409 36.2932 15.2055 36.2044C14.5516 35.7752 14.1612 35.0535 14.1612 34.2737C14.1612 33.0013 15.1965 31.9661 16.4689 31.9661C17.7414 31.9661 18.7766 33.0014 18.7766 34.2737C18.7766 34.3169 18.7751 34.3596 18.7728 34.4022C18.7654 34.5348 18.7852 34.6675 18.8309 34.7922C18.8766 34.9169 18.9472 35.031 19.0385 35.1274C19.1297 35.2239 19.2397 35.3007 19.3617 35.3532C19.4837 35.4057 19.6151 35.4327 19.7479 35.4327H30.2518ZM24.9999 27.6151C23.7029 27.6151 22.6477 26.56 22.6477 25.263C22.6477 23.966 23.7029 22.9108 24.9999 22.9108C26.2968 22.9108 27.352 23.966 27.352 25.263C27.352 26.56 26.2968 27.6151 24.9999 27.6151ZM48.0466 20.4156C48.0466 23.5055 40.2537 26.9153 28.6637 27.5206C29.0838 26.8425 29.3059 26.0605 29.3051 25.2629C29.3051 24.9552 29.272 24.6551 29.2104 24.3654C33.0005 24.1169 36.5212 23.5514 39.4579 22.7134C39.9765 22.5653 40.2771 22.025 40.129 21.5064C39.981 20.9877 39.4408 20.6872 38.922 20.8353C35.9082 21.6952 32.2325 22.2561 28.2676 22.4647C27.4774 21.5432 26.3061 20.9577 24.9999 20.9577C23.6868 20.9577 22.5098 21.5493 21.7195 22.4793C19.0321 22.3511 16.4783 22.0642 14.1253 21.6215C13.5958 21.5216 13.0847 21.8706 12.985 22.4006C12.8853 22.9307 13.2342 23.4411 13.7642 23.5409C15.9577 23.9536 18.3146 24.2359 20.7848 24.3854C20.7248 24.674 20.6946 24.9681 20.6947 25.263C20.6939 26.0606 20.916 26.8426 21.3361 27.5207C9.74598 26.9154 1.95312 23.5056 1.95312 20.4156V13.1781L1.9664 13.1893C2.06004 13.2711 2.15531 13.351 2.25214 13.429C2.3827 13.5334 2.51571 13.6347 2.65107 13.7327L2.65312 13.7342C2.72597 13.7872 2.80029 13.84 2.87597 13.8924L2.90976 13.9156C2.98095 13.9646 3.05312 14.0133 3.12675 14.0616C3.1416 14.0714 3.15683 14.0812 3.17187 14.0909C3.24618 14.1393 3.32138 14.1875 3.39814 14.2353L3.43124 14.2556C4.58534 14.9693 6.01327 15.6181 7.69813 16.1915C12.3342 17.7694 18.4786 18.6383 24.9998 18.6383C31.5209 18.6383 37.6654 17.7694 42.3014 16.1915C43.9864 15.6181 45.4145 14.9692 46.5687 14.2554L46.6014 14.2354C46.6782 14.1875 46.7535 14.1393 46.8279 14.0908L46.8729 14.0617C46.9465 14.0134 47.0188 13.9647 47.0899 13.9157L47.1237 13.8925C47.1994 13.8401 47.2737 13.7873 47.3466 13.7343L47.3486 13.7328C47.484 13.6348 47.617 13.5335 47.7476 13.4291C47.8444 13.3511 47.9396 13.2712 48.0333 13.1894L48.0466 13.1782V20.4156ZM6.2744 13.5451C7.12508 13.1563 8.28866 12.7097 9.83533 12.276C14.0378 11.0977 19.4234 10.4489 24.9999 10.4489C30.5763 10.4489 35.9619 11.0978 40.1643 12.276C41.711 12.7096 42.8747 13.1562 43.7253 13.5451C39.6839 15.3462 33.0684 16.6853 24.9999 16.6853C16.9313 16.6853 10.3158 15.3461 6.2744 13.5451ZM48.0404 9.62894C48.0361 9.68592 48.0293 9.74268 48.02 9.79906L48.0188 9.80794C48.0082 9.8679 47.995 9.92736 47.9792 9.98616C47.968 10.0287 47.9555 10.0709 47.9417 10.1126L47.9337 10.1371C47.9122 10.1991 47.8882 10.2601 47.8618 10.3201C47.8515 10.3439 47.8402 10.3675 47.829 10.3912C47.8065 10.4385 47.7829 10.4856 47.7573 10.5322L47.7505 10.5447C47.3441 11.2781 46.5771 11.9196 45.8153 12.4205C44.8038 11.8378 43.1816 11.0936 40.6917 10.3954C36.3225 9.17044 30.7497 8.49593 25 8.49593C19.2502 8.49593 13.6775 9.17054 9.30809 10.3955C6.81835 11.0936 5.19618 11.8378 4.18456 12.4206C3.42294 11.9198 2.65585 11.2782 2.24941 10.5448L2.24257 10.5323C2.21699 10.4856 2.19335 10.4385 2.1708 10.3911C2.15966 10.3675 2.14843 10.344 2.13818 10.3203C2.12939 10.3004 2.12109 10.2804 2.11289 10.2604C2.09619 10.2194 2.08027 10.1784 2.06621 10.1373C2.06337 10.1292 2.06084 10.1209 2.0581 10.1128C2.04048 10.0595 2.02494 10.0056 2.01152 9.95111C1.99965 9.90383 1.98949 9.85614 1.98105 9.80814L1.97978 9.79925C1.97046 9.74288 1.96365 9.68611 1.95937 9.62913C1.95544 9.58144 1.95336 9.53362 1.95312 9.48577C1.95312 6.08051 11.418 2.28637 24.9999 2.28637C38.5817 2.28637 48.0466 6.08051 48.0466 9.48577C48.0466 9.53343 48.044 9.58118 48.0404 9.62894Z" fill="#F1CDB3"/>
<path d="M40.1471 6.70259C40.1091 6.51344 40.0164 6.3396 39.8806 6.20259C39.8352 6.15746 39.7854 6.1169 39.7321 6.0815C39.6255 6.01065 39.5061 5.96123 39.3806 5.93599C39.2546 5.9106 39.1248 5.9106 38.9988 5.93599C38.9363 5.94869 38.8757 5.96724 38.8161 5.99166C38.7575 6.01607 38.7009 6.04634 38.6482 6.0815C38.5945 6.11666 38.5447 6.15767 38.4988 6.20259C38.4538 6.24752 38.4138 6.2983 38.3778 6.35103C38.3069 6.45766 38.2575 6.57707 38.2323 6.70259C38.2196 6.76607 38.2137 6.82955 38.2137 6.89302C38.2137 6.95748 38.2197 7.02095 38.2323 7.08443C38.2575 7.20995 38.3069 7.32936 38.3778 7.43599C38.4138 7.48873 38.4538 7.53853 38.4988 7.58443C38.5448 7.62935 38.5946 7.66939 38.6482 7.70552C38.7009 7.74068 38.7575 7.77095 38.8161 7.79537C38.8757 7.81978 38.9364 7.83834 38.9988 7.85103C39.0622 7.86373 39.1268 7.87056 39.1902 7.87056C39.2536 7.87056 39.3182 7.86373 39.3806 7.85103C39.4431 7.83834 39.5047 7.81978 39.5632 7.79537C39.6218 7.77095 39.6784 7.74068 39.7321 7.70552C39.7848 7.66939 39.8357 7.62935 39.8806 7.58443C39.9255 7.53853 39.9665 7.48873 40.0017 7.43599C40.0725 7.32936 40.1219 7.20995 40.1471 7.08443C40.1599 7.02095 40.1666 6.95748 40.1666 6.89302C40.1666 6.82945 40.1599 6.76597 40.1471 6.70259Z" fill="#F1CDB3"/>
<path d="M36.2358 5.21705C32.8712 4.58404 29.0416 4.24937 25.1613 4.24937C19.7907 4.24937 14.5988 4.88687 10.542 6.04459C10.0235 6.19264 9.72289 6.73297 9.87093 7.25162C9.9932 7.68082 10.3842 7.96051 10.8094 7.96051C10.8981 7.96051 10.9883 7.9484 11.0779 7.92281C14.9652 6.81354 19.9666 6.2026 25.1612 6.2026C28.9225 6.2026 32.6271 6.52555 35.8745 7.13658C36.4048 7.23609 36.9151 6.88746 37.0149 6.35738C37.1147 5.8273 36.7658 5.31695 36.2358 5.21705Z" fill="#F1CDB3"/>
<path d="M11.7675 21.6742C11.7548 21.6117 11.7363 21.5502 11.7118 21.4906C11.6874 21.4321 11.6572 21.3754 11.622 21.3227C11.5865 21.2692 11.5456 21.2194 11.4999 21.1742C11.455 21.1293 11.4052 21.0883 11.3515 21.0522C11.2988 21.017 11.2421 20.9877 11.1834 20.9633C11.1246 20.9387 11.0634 20.92 11.0008 20.9076C10.8748 20.8822 10.7451 20.8822 10.6191 20.9076C10.5565 20.9194 10.495 20.9389 10.4365 20.9633C10.3769 20.9877 10.3202 21.017 10.2675 21.0522C10.2138 21.0883 10.164 21.1293 10.1191 21.1742C10.0742 21.2192 10.0331 21.269 9.99798 21.3227C9.96282 21.3754 9.93255 21.4321 9.90813 21.4906C9.88372 21.5502 9.86516 21.6117 9.85247 21.6742C9.83977 21.7367 9.83294 21.8012 9.83294 21.8647C9.83354 21.9927 9.85909 22.1194 9.90813 22.2377C9.93255 22.2973 9.96282 22.3539 9.99798 22.4067C10.0331 22.4604 10.0742 22.5101 10.1191 22.5551C10.164 22.6 10.2138 22.641 10.2675 22.6762C10.3202 22.7123 10.3769 22.7416 10.4365 22.766C10.495 22.7905 10.5565 22.81 10.6191 22.8217C10.6816 22.8344 10.746 22.8412 10.8094 22.8412C10.8729 22.8412 10.9374 22.8344 11.0008 22.8217C11.0634 22.8093 11.1246 22.7907 11.1834 22.766C11.2424 22.742 11.2987 22.7119 11.3515 22.6762C11.405 22.641 11.4547 22.6004 11.4999 22.5551C11.591 22.4645 11.6631 22.3566 11.7118 22.2377C11.7612 22.1196 11.7864 21.9927 11.786 21.8647C11.786 21.8011 11.7801 21.7367 11.7675 21.6742Z" fill="#F1CDB3"/>
</svg>
