<svg width="40" height="50" viewBox="0 0 40 50" fill="none" xmlns="http://www.w3.org/2000/svg">
<path d="M39.0815 21.2481L34.2857 8.12275V1.19043C34.2857 0.533008 33.7526 0 33.0953 0H6.90488C6.24746 0 5.71446 0.533105 5.71446 1.19043V8.12266L0.918459 21.2481C0.349405 22.803 0.0586679 24.4459 0.0595724 26.1016V45.8971C0.0595724 48.1594 1.9001 50 4.1625 50H35.8375C38.0999 50 39.9404 48.1594 39.9404 45.8971V26.1016C39.9404 24.4408 39.6515 22.8078 39.0815 21.2481ZM8.09522 2.38096H31.9048V7.14287H8.09522V2.38096ZM37.5596 41.7768H20.7564C20.099 41.7768 19.566 42.3099 19.566 42.9672C19.566 43.6246 20.0991 44.1576 20.7564 44.1576H37.5596V45.8969C37.5596 46.8464 36.7871 47.6189 35.8375 47.6189H4.1625C3.21299 47.6189 2.44053 46.8465 2.44053 45.8969V26.1016C2.43979 24.7246 2.68157 23.3583 3.15479 22.0652L7.73731 9.52383H32.2627L36.8452 22.0652C37.3184 23.3583 37.5602 24.7246 37.5595 26.1016L37.5596 41.7768Z" fill="#F1CDB3"/>
<path d="M24.6808 28.1709C24.2921 25.731 22.1732 23.86 19.6254 23.86C17.0777 23.86 14.9587 25.731 14.57 28.1709C12.5559 28.9991 11.2381 31.063 11.4082 33.3049C11.598 35.8031 13.6255 37.8267 16.1241 38.0123C17.0893 38.0842 18.0477 37.8857 18.8959 37.4382C19.3596 37.194 19.8914 37.1938 20.3547 37.4383C21.0904 37.8256 21.9095 38.0276 22.7409 38.0267C22.8691 38.0267 22.9979 38.0219 23.1264 38.0124C25.6252 37.8269 27.6527 35.8032 27.8425 33.305C28.0127 31.063 26.6949 28.9991 24.6808 28.1709ZM25.4684 33.1246C25.3671 34.4583 24.2846 35.5388 22.9502 35.6379C22.4314 35.6772 21.9178 35.5709 21.4655 35.3322C20.8984 35.0328 20.2668 34.8764 19.6255 34.8764C18.9842 34.8764 18.3526 35.0328 17.7855 35.3322C17.3332 35.5707 16.8207 35.6769 16.3007 35.6379C14.9664 35.5389 13.8838 34.4584 13.7826 33.1246C13.6786 31.7551 14.608 30.5103 15.9443 30.2289C16.2156 30.1717 16.4586 30.0216 16.6311 29.8044C16.8036 29.5873 16.8949 29.3167 16.8893 29.0394L16.8873 28.9792C16.8873 27.4693 18.1155 26.2411 19.6254 26.2411C21.1353 26.2411 22.3635 27.4693 22.3635 28.9749L22.3616 29.0394C22.3559 29.3167 22.4472 29.5873 22.6197 29.8045C22.7922 30.0217 23.0352 30.1718 23.3067 30.2289C24.6431 30.5103 25.5724 31.7551 25.4684 33.1246Z" fill="#F1CDB3"/>
<path d="M19.6255 21.4792C21.759 21.4792 23.4945 19.7437 23.4945 17.6102C23.4945 15.4767 21.759 13.7411 19.6255 13.7411C17.492 13.7411 15.7565 15.4768 15.7565 17.6102C15.7565 19.7436 17.4922 21.4792 19.6255 21.4792ZM19.6255 16.1221C20.4461 16.1221 21.1136 16.7896 21.1136 17.6102C21.1136 18.4308 20.4461 19.0983 19.6255 19.0983C18.8049 19.0983 18.1374 18.4308 18.1374 17.6102C18.1374 16.7896 18.805 16.1221 19.6255 16.1221Z" fill="#F1CDB3"/>
<path d="M15.1612 22.2134C15.1612 20.0799 13.4256 18.3444 11.2922 18.3444C9.15879 18.3444 7.42315 20.08 7.42315 22.2134C7.42315 24.3468 9.1587 26.0824 11.2922 26.0824C13.4257 26.0824 15.1612 24.3468 15.1612 22.2134ZM11.2922 23.7015C10.4716 23.7015 9.80411 23.034 9.80411 22.2134C9.80411 21.3928 10.4716 20.7253 11.2922 20.7253C12.1128 20.7253 12.7803 21.3928 12.7803 22.2134C12.7803 23.034 12.1127 23.7015 11.2922 23.7015Z" fill="#F1CDB3"/>
<path d="M27.9588 18.3443C25.8253 18.3443 24.0898 20.0799 24.0898 22.2133C24.0898 24.3467 25.8255 26.0823 27.9588 26.0823C30.0923 26.0823 31.8278 24.3468 31.8278 22.2133C31.8278 20.0798 30.0923 18.3443 27.9588 18.3443ZM27.9588 23.7015C27.1382 23.7015 26.4707 23.034 26.4707 22.2134C26.4707 21.3928 27.1383 20.7253 27.9588 20.7253C28.7794 20.7253 29.4469 21.3928 29.4469 22.2134C29.4469 23.034 28.7794 23.7015 27.9588 23.7015Z" fill="#F1CDB3"/>
<path d="M15.5778 41.7768H15.2888C14.6314 41.7768 14.0983 42.3099 14.0983 42.9672C14.0983 43.6247 14.6315 44.1577 15.2888 44.1577H15.5778C16.2353 44.1577 16.7683 43.6246 16.7683 42.9672C16.7684 42.3099 16.2354 41.7768 15.5778 41.7768Z" fill="#F1CDB3"/>
</svg>
