<svg width="50" height="50" viewBox="0 0 50 50" fill="none" xmlns="http://www.w3.org/2000/svg">
<path d="M49.7136 13.2488L36.751 0.285939C36.3697 -0.0953129 35.7515 -0.0953129 35.3699 0.285939L31.9177 3.73791C31.7346 3.92106 31.6317 4.16945 31.6317 4.42844C31.6317 4.68743 31.7346 4.93581 31.9177 5.11897L36.0186 9.21976L32.1362 13.1022L26.1603 7.1263C25.7788 6.74495 25.1606 6.74505 24.7791 7.1263L20.8138 11.0916C20.6307 11.2748 20.5278 11.5232 20.5278 11.7822C20.5278 12.0412 20.6307 12.2896 20.8138 12.4727L22.0732 13.7321L5.88735 29.9185C4.40004 31.4058 4.40004 33.826 5.88735 35.3136L7.13003 36.5563L4.85151 38.8348C4.76082 38.9255 4.68887 39.0331 4.63979 39.1516C4.59071 39.2701 4.56544 39.3971 4.56544 39.5254C4.56544 39.6536 4.59071 39.7806 4.63979 39.8991C4.68887 40.0176 4.76082 40.1252 4.85151 40.2159L6.6271 41.9916L0.285768 48.3328C-0.0955814 48.7142 -0.0955814 49.3325 0.285768 49.714C0.476491 49.9047 0.726394 50 0.976298 50C1.2262 50 1.4762 49.9047 1.66683 49.714L8.00826 43.3725L9.78395 45.1482C9.9671 45.3313 10.2155 45.4342 10.4745 45.4342C10.7335 45.4342 10.9819 45.3313 11.165 45.1482L13.4435 42.8697L14.6862 44.1124C15.4067 44.8329 16.3648 45.2297 17.3838 45.2297C18.4027 45.2297 19.3608 44.8329 20.0814 44.1124L36.2674 27.9265L37.5267 29.1859C37.6173 29.2767 37.7249 29.3487 37.8435 29.3978C37.962 29.4469 38.089 29.4721 38.2173 29.4719C38.4673 29.4719 38.7171 29.3766 38.9078 29.1859L42.873 25.2205C43.0562 25.0374 43.159 24.789 43.159 24.53C43.159 24.271 43.0562 24.0226 42.873 23.8394L36.8971 17.8635L40.7796 13.9811L44.8804 18.0819C44.971 18.1727 45.0786 18.2448 45.1971 18.2938C45.3156 18.3429 45.4426 18.3681 45.5709 18.3679C45.8209 18.3679 46.0707 18.2726 46.2614 18.0819L49.7135 14.6298C50.095 14.2486 50.095 13.6302 49.7136 13.2488ZM20.613 17.9551L25.1312 22.4732C25.2218 22.5641 25.3294 22.6361 25.4479 22.6852C25.5664 22.7343 25.6934 22.7594 25.8217 22.7593C26.0717 22.7593 26.3215 22.664 26.5122 22.4732C26.8936 22.0919 26.8936 21.4735 26.5122 21.0922L21.9941 16.574L23.4543 15.1137L31.8616 23.521L27.3954 27.9871L18.9881 19.5798L20.613 17.9551ZM10.4745 43.0765L6.9231 39.5253L8.51119 37.9374L12.0624 41.4885L10.4745 43.0765ZM18.7001 42.7312C17.9743 43.457 16.7932 43.4571 16.0674 42.7312L7.26841 33.9324C6.54253 33.2065 6.54253 32.0253 7.26841 31.2995L8.65943 29.9085L11.0641 32.3132C11.2549 32.5039 11.5048 32.5993 11.7547 32.5993C12.0046 32.5993 12.2546 32.5039 12.4452 32.3132C12.8265 31.9319 12.8265 31.3135 12.4452 30.9321L10.0405 28.5274L11.6476 26.9201L16.1657 31.4382C16.3564 31.6289 16.6063 31.7242 16.8562 31.7242C17.1061 31.7242 17.3561 31.6288 17.5468 31.4382C17.9281 31.0569 17.9281 30.4385 17.5468 30.0571L13.0286 25.539L14.6358 23.9317L17.0405 26.3364C17.2312 26.5272 17.4811 26.6225 17.7311 26.6225C17.981 26.6225 18.231 26.5272 18.4216 26.3364C18.8029 25.9551 18.8029 25.3367 18.4216 24.9553L16.0169 22.5506L17.6065 20.9609L26.0139 29.3682L19.6632 35.719C19.2818 36.1003 19.2818 36.7187 19.6632 37.1001C19.8539 37.2909 20.1038 37.3862 20.3537 37.3862C20.6036 37.3862 20.8536 37.2908 21.0442 37.1001L27.395 30.7493L29.0381 32.3925L18.7001 42.7312ZM30.42 31.0115L28.7768 29.3682L33.2429 24.902L34.8861 26.5451L30.42 31.0115ZM40.8015 24.53L38.2173 27.1142L22.8855 11.7825L25.4697 9.19828L40.8015 24.53ZM35.5162 16.4825L33.5172 14.4836L37.3997 10.601L39.3986 12.6L35.5162 16.4825ZM45.5712 16.0103L33.9895 4.42853L36.0605 2.35753L47.6422 13.9392L45.5712 16.0103Z" fill="#F1CDB3"/>
<path d="M18.5962 38.9341C18.5845 38.8716 18.5649 38.8101 18.5405 38.7515C18.5162 38.6923 18.4862 38.6357 18.4507 38.5825C18.4155 38.5288 18.3745 38.479 18.3296 38.4341C18.2847 38.3892 18.2349 38.3481 18.1811 38.313C18.1279 38.2775 18.0714 38.2474 18.0122 38.2231C17.9536 38.1987 17.8921 38.1802 17.8296 38.1675C17.7039 38.1421 17.5744 38.1421 17.4487 38.1675C17.3862 38.1802 17.3247 38.1987 17.2661 38.2231C17.2065 38.2476 17.1499 38.2778 17.0972 38.313C17.0434 38.3481 16.9936 38.3892 16.9487 38.4341C16.9038 38.479 16.8628 38.5288 16.8276 38.5825C16.7925 38.6352 16.7622 38.6919 16.7378 38.7515C16.7134 38.8101 16.6938 38.8716 16.6821 38.9341C16.6694 38.9966 16.6626 39.061 16.6626 39.1245C16.6626 39.188 16.6694 39.2524 16.6821 39.3159C16.6938 39.3775 16.7134 39.439 16.7378 39.4985C16.7622 39.5571 16.7925 39.6138 16.8276 39.6665C16.8628 39.7202 16.9038 39.77 16.9487 39.815C17.0393 39.906 17.1472 39.9781 17.2661 40.0269C17.3843 40.0762 17.5111 40.1015 17.6391 40.1011C17.7672 40.1015 17.894 40.0762 18.0122 40.0269C18.1311 39.9781 18.239 39.906 18.3296 39.815C18.3745 39.77 18.4155 39.7202 18.4507 39.6665C18.4858 39.6138 18.5161 39.5571 18.5405 39.4985C18.5649 39.439 18.5845 39.3775 18.5962 39.3159C18.6089 39.2524 18.6157 39.188 18.6157 39.1245C18.6157 39.061 18.6089 38.9966 18.5962 38.9341Z" fill="#F1CDB3"/>
</svg>
