<svg width="27" height="50" viewBox="0 0 27 50" fill="none" xmlns="http://www.w3.org/2000/svg">
<path d="M19.9419 14.3179V9.78264C19.9419 9.18234 19.4553 8.69572 18.855 8.69572H18.0397V1.08692C18.0397 0.486622 17.5531 0 16.9528 0H9.88757C9.28727 0 8.80065 0.486622 8.80065 1.08692V8.69562H7.98542C7.38512 8.69562 6.8985 9.18224 6.8985 9.78254V14.3178C3.0814 15.8399 0.376709 19.5733 0.376709 23.9267V48.9131C0.376709 49.5134 0.863331 50 1.46362 50H25.3768C25.9771 50 26.4637 49.5134 26.4637 48.9131V23.9268C26.4636 19.5733 23.7589 15.8399 19.9419 14.3179ZM10.9745 2.17393H15.8658V8.69572H10.9745V2.17393ZM9.07223 10.8696H17.7679V13.5869H9.07223V10.8696ZM24.2896 47.8262H2.55054V23.9268C2.55054 19.4241 6.21373 15.7609 10.7164 15.7609H16.1238C20.6266 15.7609 24.2896 19.4241 24.2896 23.9268V47.8262Z" fill="#F1CDB3"/>
<path d="M20.4854 22.8261H6.3549C5.7546 22.8261 5.26798 23.3127 5.26798 23.913V44.0218C5.26798 44.6221 5.7546 45.1087 6.3549 45.1087H20.4854C21.0857 45.1087 21.5723 44.6221 21.5723 44.0218V37.1907C21.5723 36.5904 21.0857 36.1038 20.4854 36.1038C19.8851 36.1038 19.3985 36.5904 19.3985 37.1907V42.9348H7.44191V25H19.3985V28.4407C19.3985 29.041 19.8851 29.5276 20.4854 29.5276C21.0857 29.5276 21.5723 29.041 21.5723 28.4407V23.9131C21.5723 23.3127 21.0857 22.8261 20.4854 22.8261Z" fill="#F1CDB3"/>
<path d="M20.4853 31.7204C19.8851 31.7204 19.3984 32.2071 19.3984 32.8074V32.916C19.3984 33.5163 19.8851 34.003 20.4853 34.003C21.0856 34.003 21.5723 33.5163 21.5723 32.916V32.8074C21.5723 32.2071 21.0856 31.7204 20.4853 31.7204Z" fill="#F1CDB3"/>
<path d="M12.3268 34.2928C10.5288 34.2928 9.06597 35.7556 9.06597 37.5536C9.06597 39.3517 10.5288 40.8145 12.3268 40.8145C14.1249 40.8145 15.5877 39.3517 15.5877 37.5536C15.5877 35.7557 14.1249 34.2928 12.3268 34.2928ZM12.3268 38.6406C11.7275 38.6406 11.2399 38.153 11.2399 37.5537C11.2399 36.9544 11.7275 36.4668 12.3268 36.4668C12.9261 36.4668 13.4137 36.9544 13.4137 37.5537C13.4137 38.153 12.9262 38.6406 12.3268 38.6406Z" fill="#F1CDB3"/>
<path d="M18.038 29.9869C18.038 28.1889 16.5752 26.7261 14.7772 26.7261C12.9791 26.7261 11.5163 28.1889 11.5163 29.9869C11.5163 31.785 12.9791 33.2478 14.7772 33.2478C16.5751 33.2479 18.038 31.785 18.038 29.9869ZM14.7771 31.0739C14.1777 31.0739 13.6901 30.5863 13.6901 29.987C13.6901 29.3877 14.1777 28.9001 14.7771 28.9001C15.3764 28.9001 15.864 29.3877 15.864 29.987C15.864 30.5863 15.3766 31.0739 14.7771 31.0739Z" fill="#F1CDB3"/>
</svg>
