<svg width="48" height="50" viewBox="0 0 48 50" fill="none" xmlns="http://www.w3.org/2000/svg">
<path d="M47.294 16.6386L24.8171 0.188547C24.6497 0.0660387 24.4477 0 24.2403 0C24.0329 0 23.8309 0.0660387 23.6635 0.188547L1.18668 16.6386C0.751527 16.9571 0.656898 17.5682 0.975453 18.0034L3.91325 22.0176C3.98897 22.1211 4.08434 22.2087 4.19392 22.2754C4.30351 22.342 4.42515 22.3864 4.5519 22.4061C4.67866 22.4257 4.80803 22.4201 4.93264 22.3897C5.05724 22.3593 5.17463 22.3046 5.2781 22.2288L6.16463 21.58V49.0234C6.16463 49.5627 6.60193 50 7.14119 50H41.3911C41.9303 50 42.3676 49.5627 42.3676 49.0234V21.6178L43.2026 22.2288C43.3061 22.3046 43.4235 22.3593 43.5481 22.3896C43.6726 22.42 43.802 22.4256 43.9287 22.406C44.0555 22.3864 44.1771 22.342 44.2867 22.2753C44.3963 22.2087 44.4916 22.1211 44.5674 22.0176L47.5052 18.0034C47.8238 17.5681 47.7292 16.9571 47.294 16.6386ZM40.4145 44.2381H17.3098C16.7705 44.2381 16.3332 44.6754 16.3332 45.2146C16.3332 45.7539 16.7705 46.1912 17.3098 46.1912H40.4145V48.047H8.11766V20.9209H30.9871C31.5263 20.9209 31.9636 20.4836 31.9636 19.9444C31.9636 19.4051 31.5263 18.9678 30.9871 18.9678H9.73446L24.2404 8.35107L40.4145 20.1884V44.2381ZM43.568 20.076L24.8171 6.35292C24.6498 6.23034 24.4478 6.16428 24.2404 6.16434C24.0329 6.16426 23.8309 6.23032 23.6636 6.35292L4.91257 20.076L3.12829 17.6379L24.2405 2.1866L45.3526 17.6379L43.568 20.076Z" fill="#F1CDB3"/>
<path d="M35.4631 19.7539C35.4504 19.6913 35.4308 19.6298 35.4064 19.5702C35.382 19.5116 35.3517 19.455 35.3166 19.4022C35.2814 19.3487 35.2408 19.299 35.1955 19.2538C35.0119 19.0713 34.7639 18.9685 34.505 18.9676C34.2482 18.9676 33.9963 19.072 33.8147 19.2538C33.7698 19.2987 33.7288 19.3485 33.6936 19.4022C33.6585 19.455 33.6282 19.5116 33.6038 19.5702C33.5794 19.6298 33.5598 19.6913 33.5481 19.7539C33.5354 19.8164 33.5286 19.8808 33.5286 19.9442C33.5286 20.0077 33.5354 20.0722 33.5481 20.1346C33.5598 20.197 33.5794 20.2587 33.6038 20.3182C33.6282 20.3769 33.6585 20.4336 33.6936 20.4863C33.7288 20.54 33.7698 20.5897 33.8147 20.6347C33.8596 20.6797 33.9094 20.7207 33.9632 20.7558C34.0159 20.7909 34.0725 20.8213 34.1321 20.8457C34.1907 20.8701 34.2521 20.8896 34.3147 20.9013C34.3772 20.914 34.4417 20.9208 34.505 20.9208C34.5685 20.9208 34.6331 20.914 34.6955 20.9013C34.7581 20.8892 34.8193 20.8706 34.8781 20.8457C34.9377 20.8213 34.9943 20.7909 35.047 20.7558C35.1007 20.7207 35.1505 20.6797 35.1955 20.6347C35.2404 20.5898 35.2814 20.54 35.3166 20.4863C35.3517 20.4336 35.382 20.3769 35.4064 20.3182C35.4308 20.2588 35.4504 20.1971 35.4631 20.1346C35.4758 20.0721 35.4815 20.0077 35.4815 19.9442C35.4815 19.8808 35.4757 19.8163 35.4631 19.7539Z" fill="#F1CDB3"/>
<path d="M14.7489 45.0236C14.7364 44.961 14.7178 44.8999 14.6933 44.8409C14.6689 44.7822 14.6386 44.7247 14.6034 44.672C14.568 44.6187 14.5275 44.5689 14.4824 44.5236C14.4375 44.4786 14.3876 44.4386 14.334 44.4025C14.2273 44.3316 14.1079 44.2822 13.9824 44.257C13.8564 44.2316 13.7266 44.2316 13.6006 44.257C13.539 44.2696 13.4775 44.2882 13.4179 44.3126C13.3594 44.337 13.3027 44.3673 13.25 44.4025C13.1963 44.4376 13.1464 44.4786 13.1015 44.5236C13.0556 44.5685 13.0156 44.6193 12.9795 44.672C12.9086 44.7786 12.8592 44.898 12.8341 45.0236C12.8213 45.087 12.8155 45.1505 12.8155 45.214C12.8151 45.3423 12.8403 45.4695 12.8896 45.5879C12.914 45.6466 12.9444 45.7033 12.9795 45.7569C13.0156 45.8096 13.0556 45.8594 13.1015 45.9053C13.1465 45.9503 13.1964 45.9913 13.25 46.0264C13.3027 46.0616 13.3594 46.0918 13.4179 46.1162C13.4775 46.1407 13.539 46.1592 13.6006 46.1719C13.664 46.1846 13.7285 46.1914 13.792 46.1914C13.9849 46.1906 14.1733 46.1332 14.334 46.0264C14.3875 45.9913 14.4372 45.9507 14.4824 45.9053C14.5273 45.8594 14.5683 45.8097 14.6034 45.7569C14.7105 45.596 14.7679 45.4072 14.7684 45.214C14.7684 45.1505 14.7616 45.0869 14.7489 45.0236Z" fill="#F1CDB3"/>
<path d="M36.3708 25.4785C36.3708 24.6503 36.046 23.873 35.4561 23.2901C34.8719 22.7129 34.0731 22.3897 33.2586 22.3968C33.0018 22.3995 32.7463 22.4341 32.498 22.4998C30.6896 22.9629 28.9228 23.5753 27.2157 24.3306C26.2407 24.1 25.2423 23.9839 24.2405 23.9845C23.6763 23.9845 23.1072 24.0215 22.5485 24.0945C22.117 24.1514 21.6888 24.2302 21.2654 24.3306C19.5585 23.5753 17.792 22.9631 15.9839 22.5C15.9752 22.4975 15.9665 22.4952 15.9577 22.493C14.9966 22.2482 14.0054 22.4683 13.2384 23.0976C12.4716 23.7267 12.0621 24.6557 12.1148 25.6455C12.1685 26.6616 12.2685 27.6747 12.4143 28.6817C12.5452 29.5844 12.7125 30.4814 12.9157 31.3706C12.6134 32.1442 12.4027 32.9505 12.2881 33.7731C12.2404 34.1165 12.2163 34.4628 12.216 34.8096C12.216 39.1812 16.0281 42.7378 20.7141 42.7378H27.7671C30.3356 42.7378 32.7385 41.6697 34.3599 39.8073C35.8458 38.1005 36.4967 35.9572 36.1929 33.7725C36.1276 33.3041 36.0312 32.8405 35.9045 32.3849C35.8084 32.0416 35.6954 31.7033 35.5658 31.3712C35.9956 29.4899 36.2635 27.5752 36.3663 25.6481C36.3693 25.591 36.3708 25.5348 36.3708 25.4785ZM34.4158 25.5392L34.4156 25.5426C34.3136 27.4576 34.0385 29.3594 33.5938 31.2248C33.5454 31.4279 33.5633 31.6411 33.6449 31.8332C33.7937 32.1833 33.9199 32.5427 34.0225 32.909C34.1259 33.2809 34.2046 33.6592 34.258 34.0415C34.4828 35.6582 33.9957 37.2504 32.8863 38.5247C31.636 39.9609 29.7701 40.7846 27.7667 40.7846H20.7136C17.1048 40.7846 14.1687 38.1042 14.1687 34.8096C14.1687 34.5567 14.1867 34.298 14.2222 34.0414C14.3283 33.2818 14.5345 32.5395 14.8354 31.834C14.9173 31.6417 14.9353 31.4282 14.8868 31.2249C14.6646 30.2924 14.4843 29.3504 14.3467 28.4017C14.2094 27.4533 14.1153 26.4992 14.0647 25.5424C14.0453 25.1791 14.1955 24.8384 14.4769 24.6075C14.6829 24.4384 14.9333 24.3497 15.191 24.3497C15.2788 24.3497 15.3676 24.3599 15.4558 24.3809L15.4752 24.3861C17.2913 24.8496 19.0628 25.4729 20.7689 26.2488C20.9749 26.3427 21.2072 26.3622 21.426 26.3039C21.8782 26.1833 22.3378 26.0922 22.8018 26.031C23.2761 25.969 23.7601 25.9376 24.2399 25.9376C25.1963 25.9376 26.1429 26.0608 27.0537 26.3039C27.2722 26.3619 27.5042 26.3429 27.7101 26.2492C29.4223 25.4706 31.2003 24.8455 33.023 24.3811C33.1064 24.3612 33.1918 24.3506 33.2776 24.3497H33.2903C33.5822 24.3497 33.8705 24.4694 34.0828 24.6792C34.189 24.7834 34.2733 24.9078 34.3307 25.045C34.3882 25.1823 34.4176 25.3296 34.4173 25.4784C34.4174 25.4986 34.4169 25.5187 34.4158 25.5392Z" fill="#F1CDB3"/>
<path d="M26.0719 36.3052C25.6005 36.3052 25.2169 35.9217 25.2169 35.4503C25.2169 34.9111 24.7797 34.4738 24.2404 34.4738C23.701 34.4738 23.2638 34.9111 23.2638 35.4503V35.486C23.2638 35.9574 22.8803 36.341 22.4089 36.341C21.8696 36.341 21.4324 36.7783 21.4324 37.3175C21.4324 37.8568 21.8696 38.2941 22.4089 38.2941C23.1179 38.2941 23.7662 38.0297 24.2609 37.5947C24.7667 38.0237 25.4086 38.259 26.0719 38.2583C26.6112 38.2583 27.0485 37.821 27.0485 37.2818C27.0485 36.7424 26.6112 36.3052 26.0719 36.3052Z" fill="#F1CDB3"/>
<path d="M20.8267 31.8054L19.3761 31.1407C19.2485 31.0822 19.1098 31.0519 18.9694 31.0519C18.829 31.0519 18.6902 31.0822 18.5626 31.1407L17.112 31.8054C16.6216 32.03 16.4062 32.6096 16.6309 33.0999C16.6843 33.2165 16.7601 33.3215 16.8541 33.4087C16.9481 33.496 17.0583 33.5639 17.1785 33.6086C17.2987 33.6533 17.4266 33.6738 17.5547 33.6691C17.6829 33.6644 17.8089 33.6344 17.9254 33.581L18.9693 33.1027L20.0131 33.581C20.5032 33.8059 21.0831 33.5902 21.3077 33.0999C21.5325 32.6096 21.3169 32.0299 20.8267 31.8054Z" fill="#F1CDB3"/>
<path d="M31.3687 31.8052L29.9182 31.1406C29.7905 31.082 29.6518 31.0517 29.5114 31.0517C29.371 31.0517 29.2323 31.082 29.1047 31.1406L27.6541 31.8052C27.1637 32.0298 26.9483 32.6094 27.173 33.0998C27.3977 33.5903 27.9773 33.8058 28.4676 33.5808L29.5114 33.1026L30.5553 33.5808C30.6826 33.6394 30.8212 33.6698 30.9614 33.6698C31.3315 33.6698 31.6855 33.4583 31.8498 33.0998C32.0745 32.6094 31.8592 32.0298 31.3687 31.8052Z" fill="#F1CDB3"/>
</svg>
