<svg width="51" height="50" viewBox="0 0 51 50" fill="none" xmlns="http://www.w3.org/2000/svg">
<path d="M46.8371 10.5929H40.9846V10.4246C40.9846 7.39722 38.5217 4.93432 35.4944 4.93432C32.467 4.93432 30.0041 7.39722 30.0041 10.4246V10.5929H23.131C20.8679 10.5929 19.0268 12.4341 19.0268 14.6971V19.3341H12.8716C11.4032 19.3341 10.0981 20.2135 9.5466 21.5745C9.53859 21.5944 9.53117 21.6146 9.52434 21.635L5.97345 32.3908C5.94123 32.4099 5.90011 32.4326 5.84894 32.4582C5.64591 32.5595 5.26613 32.714 4.61261 32.8737C3.57557 33.125 2.6533 33.718 1.99441 34.5573C1.33551 35.3966 0.978354 36.4333 0.980478 37.5004V42.5823C0.980478 44.2839 2.36476 45.6683 4.06632 45.6683L8.41984 45.6684C8.87951 48.1302 11.0429 50 13.6361 50C16.2291 50 18.3925 48.1302 18.8523 45.6685L34.2061 45.6687C34.6659 48.1304 36.8292 50 39.4222 50C42.0152 50 44.1785 48.1305 44.6383 45.6688L47.4031 45.6689C49.5194 45.6689 50.9413 44.247 50.9413 42.1307V16.7334C50.9413 11.1913 48.0711 10.5929 46.8371 10.5929ZM31.9573 10.4246C31.9573 8.47417 33.544 6.88745 35.4944 6.88745C37.4448 6.88745 39.0315 8.47417 39.0315 10.4246V10.5929H31.9573V10.4246ZM11.3678 22.2816C11.4926 21.9861 11.7019 21.7341 11.9694 21.5572C12.2369 21.3803 12.5508 21.2864 12.8715 21.2873H19.0267V32.3555H8.04191L11.3678 22.2816ZM13.6361 48.0469C11.7864 48.0469 10.2815 46.5421 10.2815 44.6923C10.2815 44.6694 10.2827 44.6469 10.2832 44.624C10.2839 44.5892 10.2841 44.5542 10.2859 44.5195C10.2862 44.5141 10.2868 44.5087 10.2871 44.5032C10.3856 42.7412 11.85 41.3377 13.6361 41.3377C15.2523 41.3377 16.6052 42.4868 16.9209 44.0108L16.9223 44.0167C16.9329 44.0684 16.9421 44.1205 16.9503 44.173L16.9519 44.1817C16.9577 44.2199 16.962 44.2585 16.9665 44.2971C16.9686 44.3146 16.9714 44.3319 16.9732 44.3495C16.9762 44.3796 16.9779 44.4102 16.9801 44.4404C16.9821 44.4669 16.9848 44.4931 16.9862 44.5196C16.9875 44.547 16.9875 44.5747 16.9882 44.6022C16.989 44.6322 16.9905 44.662 16.9905 44.6922C16.9907 46.5421 15.4858 48.0469 13.6361 48.0469ZM39.4222 48.0469C37.5725 48.0469 36.0676 46.5421 36.0676 44.6923C36.0676 44.6486 36.0693 44.6053 36.0709 44.562C36.0714 44.548 36.0713 44.5338 36.072 44.5199C36.0737 44.4877 36.0768 44.456 36.0793 44.424C36.0813 44.3993 36.0825 44.3743 36.085 44.3497C36.0861 44.3392 36.0878 44.329 36.0889 44.3186C36.1002 44.2167 36.1156 44.1159 36.1359 44.017C36.1365 44.0141 36.1373 44.0112 36.1379 44.0083C36.4546 42.4855 37.8068 41.3378 39.4222 41.3378C39.8846 41.3378 40.3255 41.4318 40.7267 41.6018C41.9303 42.1118 42.7767 43.3051 42.7767 44.6924C42.7767 46.5421 41.2719 48.0469 39.4222 48.0469ZM47.4031 43.7157L44.6399 43.7156C44.6367 43.6983 44.6325 43.6813 44.6291 43.6641C44.6061 43.5493 44.5796 43.4352 44.5497 43.3221C44.5364 43.2726 44.5223 43.2233 44.5076 43.1742C44.4984 43.1437 44.4894 43.1132 44.4798 43.0829C44.4634 43.0318 44.4462 42.9811 44.4282 42.9306C44.4186 42.9035 44.4095 42.8762 44.3995 42.8493C44.3777 42.7911 44.3548 42.7333 44.3309 42.6759C44.3234 42.6577 44.3166 42.6392 44.3088 42.6211C44.2766 42.5452 44.2426 42.4702 44.2069 42.3959C44.2024 42.3866 44.1975 42.3777 44.193 42.3685C44.1618 42.3047 44.1294 42.2415 44.0958 42.1789C44.0834 42.1559 44.0702 42.1336 44.0575 42.1108C44.0307 42.0625 44.0031 42.0146 43.9748 41.9672C43.9593 41.9415 43.9433 41.9163 43.9274 41.8908C43.8839 41.8205 43.8385 41.7514 43.7914 41.6835C43.745 41.6163 43.6971 41.5502 43.6478 41.4851C43.617 41.4448 43.5856 41.4049 43.5537 41.3654C43.5346 41.3419 43.5159 41.3183 43.4964 41.295C43.4617 41.2536 43.4263 41.2128 43.3903 41.1725C43.3725 41.1525 43.3552 41.1321 43.3372 41.1125C43.2924 41.0637 43.2466 41.0157 43.2 40.9686C43.1899 40.9585 43.1803 40.9478 43.1702 40.9378C43.1126 40.8803 43.0537 40.8242 42.9936 40.7694C42.9808 40.7577 42.9674 40.7467 42.9545 40.735C42.9074 40.693 42.8597 40.6513 42.8111 40.6108C42.7898 40.5931 42.7678 40.5761 42.7462 40.5587C42.7051 40.5254 42.6634 40.4926 42.6213 40.4604C42.5965 40.4417 42.5714 40.4234 42.5463 40.4052C42.4402 40.3273 42.3311 40.2536 42.2193 40.1842C42.1919 40.1671 42.1645 40.1502 42.1368 40.1336C42.0935 40.1077 42.0498 40.0828 42.0057 40.0582C41.9787 40.0431 41.9517 40.0276 41.9244 40.013C41.8765 39.9873 41.828 39.9628 41.7793 39.9386C41.755 39.9265 41.7311 39.9139 41.7067 39.9022C41.6429 39.8718 41.5784 39.8426 41.5134 39.8147C41.5035 39.8104 41.4937 39.8057 41.4836 39.8014C41.4081 39.7694 41.3317 39.7393 41.2547 39.7109C41.2328 39.7028 41.2104 39.6957 41.1882 39.6879C41.133 39.6683 41.0776 39.6491 41.0215 39.6313C40.9921 39.6221 40.9625 39.6137 40.9329 39.6049C40.8832 39.5901 40.8334 39.5756 40.7831 39.5622C40.7508 39.5536 40.7184 39.5458 40.6859 39.5378C40.6038 39.5176 40.5213 39.4994 40.4383 39.4832C40.3892 39.4737 40.3399 39.4648 40.2905 39.4567C40.2566 39.4512 40.2227 39.4455 40.1886 39.4406C40.1373 39.4333 40.0858 39.4268 40.0342 39.421C40.0015 39.4172 39.9689 39.4131 39.936 39.41C39.8789 39.4047 39.8217 39.4003 39.7644 39.3969C39.7364 39.3951 39.7086 39.3926 39.6805 39.3912C39.5945 39.387 39.5083 39.3848 39.4221 39.3847C39.3355 39.3847 39.2494 39.3871 39.1637 39.3912C39.1356 39.3926 39.1078 39.3951 39.0797 39.3969C39.0224 39.4006 38.9652 39.4045 38.9084 39.41C38.8753 39.4132 38.8427 39.4173 38.8099 39.4211C38.7584 39.427 38.7069 39.4333 38.6558 39.4407C38.6216 39.4457 38.5876 39.4513 38.5536 39.4569C38.4702 39.4708 38.3871 39.4865 38.3043 39.5041C38.2557 39.5147 38.2073 39.5259 38.1589 39.5378C38.1261 39.5458 38.0934 39.5538 38.0609 39.5624C38.0111 39.5756 37.9618 39.5899 37.9126 39.6046C37.8825 39.6136 37.8522 39.6221 37.8223 39.6315C37.7676 39.6491 37.7131 39.6675 37.6589 39.6869C37.6357 39.6951 37.6122 39.7026 37.589 39.7112C37.5123 39.7395 37.4363 39.7694 37.3613 39.8012C37.3489 39.8064 37.3368 39.8123 37.3244 39.8177C37.2618 39.8447 37.1997 39.8725 37.1383 39.9018C37.1124 39.9142 37.0872 39.9275 37.0615 39.9403C37.0144 39.9639 36.9673 39.9875 36.921 40.0123C36.8924 40.0276 36.8642 40.0437 36.8359 40.0597C36.7933 40.0835 36.7509 40.1078 36.7089 40.1327C36.6102 40.192 36.5133 40.2543 36.4183 40.3194C36.3788 40.3467 36.3397 40.3745 36.301 40.4029C36.2744 40.4224 36.2476 40.4417 36.2213 40.4616C36.1812 40.4921 36.1418 40.5234 36.1026 40.555C36.079 40.574 36.055 40.5926 36.0317 40.612C35.9866 40.6496 35.9424 40.6884 35.8986 40.7273C35.8823 40.7418 35.8656 40.7558 35.8495 40.7704C35.7902 40.8244 35.7322 40.8797 35.6754 40.9363C35.6611 40.9506 35.6475 40.9656 35.6333 40.9801C35.5912 41.023 35.5494 41.0663 35.5086 41.1107C35.4883 41.133 35.4687 41.1558 35.4488 41.1784C35.4153 41.2162 35.382 41.2541 35.3496 41.2929C35.3285 41.3181 35.308 41.3438 35.2874 41.3695C35.2573 41.4068 35.2276 41.4443 35.1985 41.4824C35.1287 41.5742 35.0619 41.6682 34.998 41.7641C34.9713 41.8042 34.9456 41.8448 34.9201 41.8856C34.9026 41.9136 34.8849 41.9414 34.868 41.9696C34.8417 42.0135 34.8165 42.058 34.7915 42.1027C34.7768 42.1288 34.7617 42.1546 34.7474 42.181C34.7173 42.2367 34.6887 42.2933 34.6607 42.3502C34.6528 42.3662 34.6443 42.3817 34.6366 42.3978C34.6015 42.4709 34.568 42.5447 34.5363 42.6192C34.5266 42.642 34.5179 42.6652 34.5085 42.6882C34.487 42.7408 34.4657 42.7936 34.4458 42.8472C34.4346 42.877 34.4246 42.9073 34.4139 42.9373C34.3971 42.9848 34.3809 43.0325 34.3654 43.0804C34.3549 43.113 34.3453 43.146 34.3354 43.1789C34.3114 43.2592 34.2894 43.34 34.2693 43.4214C34.2577 43.4683 34.2468 43.5156 34.2365 43.5632C34.229 43.5976 34.2215 43.6321 34.2147 43.6668C34.2115 43.6832 34.2075 43.6993 34.2044 43.7157L18.8534 43.7154C18.8502 43.6985 18.8462 43.6818 18.8429 43.6649C18.8364 43.6315 18.8291 43.5984 18.822 43.5653C18.7937 43.4346 18.7603 43.305 18.7219 43.1768C18.7124 43.145 18.703 43.1132 18.6929 43.0815C18.6771 43.0325 18.6605 42.9837 18.6433 42.9352C18.633 42.906 18.6232 42.8768 18.6124 42.8478C18.5921 42.7935 18.5707 42.7396 18.5485 42.686C18.5395 42.664 18.5311 42.6415 18.5217 42.6196C18.4899 42.5449 18.4564 42.4708 18.4211 42.3977C18.414 42.3829 18.4062 42.3686 18.399 42.354C18.3704 42.2957 18.3408 42.2379 18.3101 42.1808C18.2962 42.155 18.2814 42.1297 18.267 42.1042C18.2416 42.059 18.2161 42.0139 18.1895 41.9695C18.1727 41.9415 18.1552 41.9141 18.1379 41.8864C18.1123 41.8453 18.0862 41.8045 18.0595 41.7641C17.9956 41.6683 17.9288 41.5745 17.8591 41.4827C17.8301 41.4446 17.8004 41.4071 17.7703 41.3699C17.7496 41.3442 17.729 41.3183 17.7079 41.2931C17.6755 41.2546 17.6425 41.2166 17.6091 41.179C17.589 41.1563 17.5693 41.1333 17.5489 41.1109C17.5086 41.067 17.4672 41.0241 17.4255 40.9815C17.4109 40.9666 17.3969 40.9512 17.3821 40.9365C17.3254 40.88 17.2675 40.8248 17.2083 40.7709C17.1919 40.7558 17.1747 40.7417 17.1581 40.7268C17.1148 40.688 17.0707 40.6499 17.0261 40.6125C17.0025 40.5929 16.9782 40.574 16.9543 40.5548C16.9155 40.5235 16.8764 40.4924 16.8366 40.4622C16.8101 40.4421 16.7831 40.4226 16.7563 40.403C16.7177 40.3748 16.6788 40.3471 16.6396 40.3199C16.5724 40.2738 16.5042 40.2291 16.435 40.186C16.4063 40.168 16.3774 40.1503 16.3484 40.1329C16.3067 40.1081 16.2646 40.0839 16.2222 40.0602C16.1937 40.0442 16.1653 40.028 16.1364 40.0126C16.0903 39.9881 16.0438 39.9642 15.997 39.9411C15.971 39.9281 15.9453 39.9146 15.9191 39.902C15.8584 39.8732 15.7973 39.8455 15.7357 39.8189C15.7225 39.8132 15.7096 39.8069 15.6963 39.8013C15.6212 39.7696 15.5454 39.7396 15.4689 39.7114C15.4453 39.7027 15.4214 39.6951 15.3977 39.6867C15.3439 39.6675 15.2899 39.6492 15.2356 39.6317C15.2055 39.6222 15.1749 39.6136 15.1446 39.6046C15.0956 39.5899 15.0464 39.5759 14.997 39.5626C14.9643 39.5539 14.9314 39.5459 14.8985 39.5379C14.7682 39.5056 14.6366 39.4786 14.5041 39.457C14.4701 39.4515 14.4362 39.4458 14.4019 39.4408C14.3506 39.4335 14.2992 39.427 14.2477 39.4212C14.215 39.4174 14.1823 39.4133 14.1494 39.41C14.0923 39.4048 14.0351 39.4004 13.9779 39.397C13.9498 39.3952 13.9221 39.3927 13.894 39.3913C13.8079 39.387 13.7217 39.3849 13.6356 39.3848C13.549 39.3848 13.4629 39.3872 13.3772 39.3913C13.349 39.3927 13.3212 39.3952 13.2932 39.397C13.2359 39.4007 13.1786 39.4046 13.1218 39.41C13.0888 39.4133 13.0561 39.4174 13.0233 39.4212C12.9719 39.427 12.9206 39.4335 12.8694 39.4408C12.835 39.4458 12.8009 39.4515 12.7668 39.457C12.6834 39.4707 12.6003 39.4864 12.5177 39.5042C12.4693 39.5146 12.4211 39.5259 12.3731 39.5377C12.34 39.5458 12.3068 39.5539 12.2739 39.5626C12.2249 39.5758 12.1761 39.5897 12.1275 39.6043C12.0968 39.6134 12.0659 39.6222 12.0355 39.6317C11.9818 39.6487 11.9286 39.6673 11.8756 39.6859C11.8511 39.6945 11.8264 39.7024 11.8021 39.7114C11.7257 39.7396 11.6501 39.7693 11.5755 39.8009C11.5604 39.8073 11.5456 39.8144 11.5306 39.821C11.4709 39.8469 11.4115 39.8734 11.353 39.9015C11.3256 39.9145 11.2988 39.9286 11.2717 39.9422C11.2261 39.9648 11.1807 39.988 11.1358 40.0119C11.1061 40.0278 11.0769 40.0445 11.0475 40.061C11.0061 40.0843 10.9648 40.1077 10.924 40.1321C10.8544 40.1738 10.7857 40.2171 10.7179 40.2618C10.6886 40.2811 10.6595 40.3007 10.6306 40.3206C10.5923 40.347 10.5546 40.374 10.517 40.4014C10.4892 40.4217 10.4612 40.4419 10.4337 40.4628C10.3953 40.492 10.3576 40.522 10.32 40.5521C10.2947 40.5724 10.2692 40.5923 10.2444 40.6131C10.2021 40.6482 10.1609 40.6846 10.1197 40.721C10.1006 40.7379 10.0811 40.7543 10.0621 40.7715C10.0036 40.8249 9.94628 40.8795 9.89016 40.9354C9.87277 40.9528 9.85617 40.971 9.83898 40.9886C9.80002 41.0285 9.76125 41.0685 9.72355 41.1097C9.70158 41.1336 9.68049 41.1583 9.659 41.1826C9.62717 41.2186 9.59543 41.2547 9.56467 41.2916C9.5424 41.3181 9.52072 41.3453 9.49904 41.3724C9.47016 41.4082 9.44174 41.4443 9.41379 41.4809C9.36469 41.5454 9.31705 41.611 9.27092 41.6777C9.25064 41.7069 9.23065 41.7363 9.21096 41.7658C9.18527 41.8045 9.16047 41.8436 9.13576 41.8829C9.1174 41.9122 9.09894 41.9413 9.08117 41.971C9.05588 42.0131 9.03176 42.0558 9.00764 42.0986C8.99201 42.1265 8.9759 42.154 8.96066 42.1821C8.93252 42.2348 8.90527 42.2879 8.87892 42.3415C8.86935 42.3606 8.8592 42.3794 8.84992 42.3987C8.81515 42.471 8.78205 42.5441 8.75051 42.6182C8.73976 42.6433 8.73019 42.669 8.71984 42.6944C8.69933 42.7447 8.67892 42.795 8.65998 42.846C8.64836 42.8771 8.63781 42.9087 8.62678 42.9401C8.61057 42.9863 8.59455 43.0325 8.57961 43.0792C8.56887 43.1127 8.5589 43.1465 8.54885 43.1803C8.53527 43.2259 8.52209 43.2716 8.50969 43.3177C8.48795 43.3985 8.46825 43.4798 8.4506 43.5616C8.44299 43.5968 8.43537 43.6318 8.42844 43.6673C8.42531 43.6833 8.4214 43.6991 8.41838 43.7151H4.06632C3.44171 43.7151 2.93361 43.207 2.93361 42.5823V37.5004C2.9323 36.8709 3.14294 36.2594 3.53159 35.7643C3.92024 35.2692 4.46426 34.9194 5.07599 34.7712C5.63253 34.6351 6.11056 34.4801 6.50089 34.3088H41.9689C42.5082 34.3088 42.9455 33.8716 42.9455 33.3322C42.9455 32.7929 42.5082 32.3556 41.9689 32.3556H20.9799V14.6971C20.9799 13.5111 21.945 12.5461 23.131 12.5461H46.837C48.7087 12.5461 48.9881 15.1695 48.9881 16.7334V42.1307C48.9881 43.5099 47.995 43.7157 47.4031 43.7157Z" fill="#F1CDB3"/>
<path d="M43.031 20.679C43.0311 19.3969 42.1306 18.3219 40.9292 18.0513C40.9356 17.9838 40.9407 17.9161 40.9426 17.8474C40.965 17.0528 40.6681 16.2973 40.1069 15.7201C39.5361 15.133 38.7389 14.7964 37.9196 14.7964C36.9296 14.7964 36.0478 15.2782 35.4958 16.02C34.9441 15.2782 34.0616 14.7964 33.0693 14.7964C32.2573 14.7964 31.4656 15.1286 30.8973 15.7081C30.333 16.2835 30.0306 17.0403 30.0461 17.8387C30.0474 17.9103 30.0523 17.9811 30.0586 18.0515C28.8577 18.3225 27.9578 19.3972 27.9578 20.679C27.9578 21.7636 28.6025 22.7 29.5285 23.1266C28.8761 23.9338 28.4955 24.9553 28.4955 26.0353C28.4955 28.5857 30.5704 30.6606 33.1208 30.6606C33.9608 30.6606 34.7809 30.431 35.4944 30.0043C36.2118 30.4335 37.0321 30.6603 37.868 30.6606C40.4184 30.6606 42.4933 28.5857 42.4933 26.0353C42.4933 24.9552 42.1127 23.9338 41.4603 23.1266C42.3864 22.7 43.031 21.7636 43.031 20.679ZM37.9196 16.7496C38.2146 16.7496 38.5014 16.8706 38.7066 17.0816C38.8969 17.2774 38.9976 17.5297 38.9903 17.7923C38.9734 18.3911 38.4881 18.8835 37.9083 18.8902C37.7529 18.89 37.5993 18.8566 37.458 18.7921C37.4405 18.784 37.4233 18.7753 37.4057 18.7674C37.3168 18.7205 37.2353 18.6606 37.1639 18.5898C36.9599 18.3873 36.8482 18.1154 36.8494 17.8238C36.8517 17.2315 37.3319 16.7496 37.9196 16.7496ZM32.2916 17.0758C32.3927 16.9721 32.5137 16.8898 32.6473 16.8337C32.7808 16.7777 32.9243 16.7491 33.0692 16.7495C33.6587 16.7495 34.1387 17.2302 34.1394 17.8209C34.1402 17.9649 34.112 18.1076 34.0566 18.2405C34.0012 18.3733 33.9197 18.4938 33.8169 18.5946C33.7471 18.6633 33.6679 18.7217 33.5816 18.7681C33.5497 18.7826 33.5185 18.7981 33.487 18.8132C33.3597 18.8658 33.223 18.892 33.0853 18.8903C32.4975 18.8806 32.0101 18.392 31.9987 17.8011C31.9934 17.5312 32.0975 17.2738 32.2916 17.0758ZM29.9109 20.679C29.9108 20.2705 30.2432 19.9381 30.6516 19.9381C31.0602 19.9381 31.3925 20.2705 31.3925 20.679C31.3925 20.7629 31.3779 20.8432 31.3521 20.9185C31.3277 20.9676 31.3042 21.0172 31.2815 21.0673C31.1508 21.2785 30.9177 21.4199 30.6517 21.4199C30.2432 21.4199 29.9109 21.0875 29.9109 20.679ZM37.868 28.7077C37.2305 28.7074 36.6141 28.4792 36.1301 28.0641C35.9532 27.9121 35.7276 27.8286 35.4944 27.8289C35.2612 27.8287 35.0356 27.9122 34.8587 28.0641C34.3747 28.4792 33.7583 28.7074 33.1208 28.7077C31.6473 28.7077 30.4486 27.5089 30.4486 26.0355C30.4486 24.9186 31.1528 23.9099 32.2008 23.5256C32.3728 23.4626 32.5235 23.3525 32.6358 23.208C32.7482 23.0634 32.8176 22.8901 32.8362 22.708C32.8636 22.4394 32.9314 22.1765 33.0374 21.9283C33.0721 21.8622 33.1047 21.7948 33.134 21.7256C33.3931 21.2376 33.7977 20.8424 34.2916 20.5947C34.334 20.576 34.376 20.5564 34.4176 20.5357C34.7572 20.3873 35.1238 20.311 35.4944 20.3115C35.8761 20.3115 36.2397 20.3911 36.5691 20.5348C36.6107 20.5554 36.6527 20.5749 36.6952 20.5936C37.19 20.8412 37.5953 21.2369 37.8548 21.7256C37.8841 21.7948 37.9167 21.8622 37.9514 21.9283C38.0574 22.1765 38.1252 22.4394 38.1526 22.708C38.1712 22.8901 38.2406 23.0634 38.353 23.208C38.4653 23.3525 38.616 23.4626 38.788 23.5256C39.836 23.91 40.5402 24.9186 40.5402 26.0355C40.5402 27.5088 39.3415 28.7077 37.868 28.7077ZM40.3372 21.4199C40.0712 21.4199 39.8381 21.2785 39.7074 21.0673C39.6847 21.0173 39.6612 20.9677 39.6368 20.9185C39.6102 20.8415 39.5965 20.7606 39.5964 20.679C39.5964 20.2705 39.9287 19.9381 40.3373 19.9381C40.7458 19.9381 41.0781 20.2705 41.0781 20.679C41.078 21.0874 40.7457 21.4199 40.3372 21.4199Z" fill="#F1CDB3"/>
<path d="M46.8495 33.1465C46.837 33.084 46.8184 33.0228 46.7939 32.9639C46.7696 32.9048 46.7395 32.8482 46.7041 32.795C46.6689 32.7415 46.6283 32.6917 46.583 32.6465C46.5378 32.6012 46.4881 32.5606 46.4346 32.5254C46.3278 32.4548 46.2085 32.4054 46.083 32.3799C45.9573 32.3545 45.8278 32.3545 45.7021 32.3799C45.6396 32.3927 45.5781 32.4112 45.5186 32.4356C45.46 32.46 45.4033 32.4904 45.3506 32.5254C45.2969 32.5606 45.2471 32.6016 45.2021 32.6465C45.1571 32.6914 45.1161 32.7412 45.0801 32.795C45.0449 32.8477 45.0145 32.9043 44.9912 32.9639C44.9668 33.0225 44.9473 33.084 44.9355 33.1465C44.9228 33.209 44.916 33.2735 44.916 33.3369C44.916 33.4003 44.9228 33.4649 44.9355 33.5284C44.9473 33.5899 44.9668 33.6514 44.9912 33.711C45.0156 33.7696 45.0459 33.8262 45.0811 33.8789C45.1161 33.9327 45.1571 33.9825 45.2021 34.0274C45.2471 34.0723 45.2969 34.1133 45.3506 34.1495C45.4033 34.1846 45.46 34.2139 45.5186 34.2383C45.5781 34.2627 45.6396 34.2823 45.7021 34.294C45.7647 34.3067 45.8292 34.3135 45.8926 34.3135C45.9561 34.3135 46.0206 34.3067 46.083 34.294C46.1455 34.2823 46.207 34.2627 46.2656 34.2383C46.3252 34.2139 46.3818 34.1846 46.4346 34.1495C46.4884 34.1133 46.5382 34.0723 46.583 34.0274C46.6279 33.9825 46.6689 33.9327 46.7041 33.8789C46.7392 33.8262 46.7695 33.7696 46.7939 33.711C46.8184 33.6514 46.8368 33.5899 46.8495 33.5284C46.8623 33.4649 46.869 33.4003 46.869 33.3369C46.869 33.2735 46.8623 33.209 46.8495 33.1465Z" fill="#F1CDB3"/>
<path d="M35.4944 0C34.9551 0 34.5178 0.437208 34.5178 0.976564V2.61133C34.5178 3.15069 34.9551 3.58789 35.4944 3.58789C36.0338 3.58789 36.471 3.15059 36.471 2.61133V0.976564C36.471 0.437208 36.0338 0 35.4944 0Z" fill="#F1CDB3"/>
<path d="M31.3803 3.79716L30.0172 2.72695C29.9163 2.64775 29.8008 2.58919 29.6773 2.55463C29.5538 2.52006 29.4247 2.51015 29.2974 2.52548C29.1701 2.5408 29.047 2.58106 28.9352 2.64395C28.8235 2.70683 28.7252 2.79112 28.646 2.89199C28.313 3.31621 28.3869 3.93007 28.811 4.26308L30.1741 5.3333C30.3458 5.46852 30.558 5.54196 30.7766 5.5418C30.9246 5.542 31.0708 5.50848 31.204 5.44378C31.3372 5.37907 31.4539 5.28489 31.5453 5.16836C31.8784 4.74404 31.8045 4.13017 31.3803 3.79716Z" fill="#F1CDB3"/>
<path d="M42.3429 2.89185C42.0099 2.46763 41.3961 2.3937 40.9717 2.72681L39.6086 3.79702C39.1844 4.13003 39.1104 4.7439 39.4436 5.16822C39.5349 5.28482 39.6516 5.37906 39.7848 5.44379C39.918 5.50852 40.0642 5.54202 40.2123 5.54175C40.4308 5.5419 40.6431 5.46846 40.8147 5.33326L42.1778 4.26304C42.6021 3.93003 42.676 3.31616 42.3429 2.89185Z" fill="#F1CDB3"/>
</svg>
