<svg width="50" height="46" viewBox="0 0 50 46" fill="none" xmlns="http://www.w3.org/2000/svg">
<path d="M45.259 27.4988C42.5299 26.57 38.9207 26.0585 35.0965 26.0585C34.8574 26.0585 34.6192 26.0604 34.3821 26.0645C30.8245 26.124 27.4925 26.628 24.9339 27.4988C24.5233 27.6378 24.1187 27.7936 23.7209 27.9657V12.3604C23.7209 5.8206 18.4004 0.5 11.8604 0.5C5.32051 0.5 0 5.8206 0 12.3604V33.7718C0 40.3116 5.32051 45.6322 11.8604 45.6322C13.935 45.6322 15.9769 45.0885 17.7656 44.0598C18.8935 43.4111 19.9067 42.578 20.764 41.6048C21.3871 42.4801 22.6209 43.4047 24.934 44.1919C27.6631 45.1207 31.2722 45.6322 35.0964 45.6322C38.9206 45.6322 42.5298 45.1207 45.2589 44.1919C49.1774 42.8583 50 41.1305 50 39.9158V31.7749C50 30.5603 49.1774 28.8324 45.259 27.4988ZM22.1462 31.7749C22.1466 31.7386 22.1498 31.7023 22.156 31.6665L22.1576 31.6568C22.1907 31.4804 22.2969 31.2754 22.4923 31.0532L22.496 31.0491C22.5256 31.0156 22.5579 30.9816 22.5916 30.9474C22.6142 30.9247 22.6367 30.9019 22.6608 30.8793L22.6893 30.8527C22.8529 30.7019 23.0501 30.5503 23.2776 30.4021C23.2815 30.3995 23.2849 30.3964 23.2887 30.3938C23.8226 30.0471 24.565 29.6875 25.5633 29.3478C28.0951 28.4861 31.4808 28.0115 35.0965 28.0115C38.3909 28.0116 41.492 28.4066 43.9325 29.1284L23.0331 32.9797C22.4057 32.5178 22.1473 32.0897 22.1462 31.777V31.7749ZM21.7678 29.0753C21.0149 29.652 20.5953 30.2381 20.3826 30.7818C20.311 30.9646 20.259 31.1546 20.2277 31.3484C20.2134 31.4366 20.2036 31.5254 20.1982 31.6146L20.1966 31.6397C20.1942 31.6854 20.1928 31.7305 20.1928 31.7748V39.1341C18.3574 41.9854 15.2625 43.6791 11.8604 43.6791C6.39756 43.6791 1.95312 39.2347 1.95312 33.7718V24.0427H3.90625V29.3161C3.90625 29.8555 4.34355 30.2927 4.88281 30.2927C5.42207 30.2927 5.85938 29.8555 5.85938 29.3161V24.0427H21.7678V29.0753ZM21.7678 22.0896H5.85938V12.3604C5.85938 9.05146 8.55137 6.35937 11.8604 6.35937C15.1695 6.35937 17.8615 9.05146 17.8615 12.3604C17.8615 12.8998 18.2988 13.337 18.8381 13.337C19.3774 13.337 19.8146 12.8998 19.8146 12.3604C19.8146 7.97451 16.2464 4.40625 11.8604 4.40625C7.47451 4.40625 3.90625 7.97451 3.90625 12.3604V22.0896H1.95312V12.3604C1.95312 6.89756 6.39756 2.45312 11.8604 2.45312C17.3233 2.45312 21.7678 6.89756 21.7678 12.3604V22.0896ZM48.0469 39.9158C48.0469 40.4989 47.152 41.4845 44.6297 42.343C42.0979 43.2046 38.7122 43.6792 35.0965 43.6792C31.4808 43.6792 28.0951 43.2047 25.5633 42.343C23.041 41.4846 22.1461 40.499 22.1461 39.9158V39.4155L22.1462 39.4142V34.7443C22.8302 35.1994 23.737 35.6437 24.934 36.051C27.6631 36.9798 31.2723 37.4913 35.0965 37.4913C38.9207 37.4913 42.5299 36.9798 45.259 36.051C46.456 35.6436 47.3629 35.1994 48.0469 34.7442V39.9158ZM44.6297 34.202C42.0979 35.0636 38.7123 35.5382 35.0965 35.5382C31.7547 35.5382 28.6111 35.132 26.155 34.3904L47.1042 30.53C47.7731 31.0082 48.0469 31.4529 48.0469 31.7749C48.0469 32.358 47.152 33.3436 44.6297 34.202Z" fill="#F1CDB3"/>
<path d="M5.57314 32.5017C5.52822 32.4568 5.47851 32.4158 5.4248 32.3806C5.3716 32.3451 5.31501 32.315 5.25585 32.2907C5.19726 32.2663 5.13583 32.2478 5.07333 32.2351C4.94765 32.2097 4.81816 32.2097 4.69247 32.2351C4.62997 32.2478 4.56845 32.2663 4.50888 32.2907C4.45019 32.3152 4.39365 32.3454 4.34091 32.3806C4.2871 32.4158 4.2373 32.4568 4.19238 32.5017C4.14746 32.5466 4.10644 32.5964 4.07128 32.6501C4.03515 32.7029 4.00585 32.7595 3.98144 32.8191C3.95703 32.8777 3.93749 32.9392 3.92587 33.0017C3.91308 33.0642 3.90634 33.1286 3.90634 33.1921C3.90634 33.2566 3.91308 33.32 3.92587 33.3835C3.93749 33.446 3.95703 33.5075 3.98144 33.5661C4.00585 33.6247 4.03515 33.6814 4.07128 33.7351C4.10644 33.7878 4.14746 33.8376 4.19238 33.8835C4.32944 34.0194 4.5033 34.112 4.69247 34.1501C4.75497 34.1628 4.81943 34.1687 4.8829 34.1687C5.01092 34.169 5.13772 34.1438 5.25585 34.0945C5.31501 34.0702 5.3716 34.0401 5.4248 34.0046C5.47851 33.9685 5.52831 33.9284 5.57324 33.8835C5.61826 33.8376 5.65927 33.7878 5.69433 33.7351C5.72949 33.6814 5.75976 33.6247 5.78417 33.5661C5.80859 33.5075 5.82812 33.446 5.84081 33.3835C5.85351 33.32 5.85937 33.2566 5.85937 33.1921C5.85937 32.9353 5.75488 32.6833 5.57314 32.5017Z" fill="#F1CDB3"/>
</svg>
